<?xml version="1.0" standalone="no"?>
<!DOCTYPE svg PUBLIC "-//W3C//DTD SVG 20010904//EN"
 "http://www.w3.org/TR/2001/REC-SVG-20010904/DTD/svg10.dtd">
<svg version="1.0" xmlns="http://www.w3.org/2000/svg"
 width="460.000000pt" height="200.000000pt" viewBox="0 0 460.000000 200.000000"
 preserveAspectRatio="xMidYMid meet">

<g transform="translate(0.000000,200.000000) scale(0.100000,-0.100000)"
fill="#000000" stroke="none">
<path d="M3223 1558 c-12 -6 -26 -22 -31 -37 -44 -123 -185 -460 -302 -722
l-43 -95 -89 -38 c-49 -20 -97 -36 -106 -34 -30 6 -24 42 21 144 46 105 41
100 130 119 19 4 27 12 27 26 0 18 -4 20 -45 13 l-46 -6 26 58 c58 130 67 155
62 160 -8 9 -73 -15 -86 -30 -7 -8 -29 -56 -49 -107 l-38 -94 -49 -16 c-64
-20 -75 -44 -16 -36 22 3 41 2 41 -1 0 -4 -14 -42 -32 -86 -31 -78 -32 -79
-92 -107 -69 -33 -96 -36 -96 -13 0 9 18 55 40 102 22 47 38 87 36 90 -16 15
-63 -17 -117 -81 -81 -94 -118 -120 -172 -121 -39 -1 -42 1 -45 28 -5 45 4 69
47 117 54 62 109 86 164 72 33 -9 47 -8 69 3 35 18 36 32 2 44 -63 24 -153 2
-245 -60 -61 -42 -113 -97 -124 -130 -5 -15 -29 -32 -71 -51 -78 -36 -142 -46
-174 -29 -23 12 -23 13 -4 27 10 8 63 37 116 64 104 52 128 76 128 126 0 38
-30 63 -75 63 -41 0 -144 -51 -179 -88 -16 -17 -33 -29 -38 -26 -5 3 -19 -1
-32 -10 -47 -30 -236 -63 -236 -41 0 3 61 138 135 299 74 162 135 301 135 310
0 22 -42 21 -68 -1 -12 -11 -64 -125 -122 -272 -131 -329 -133 -333 -168 -325
-67 15 -192 47 -239 60 l-52 15 29 52 c55 98 260 583 260 615 0 21 -80 9 -97
-14 -7 -9 -24 -53 -39 -98 -47 -143 -120 -330 -169 -434 l-47 -100 -92 2 c-93
1 -134 -9 -188 -46 -39 -27 -35 -44 5 -21 18 11 48 23 67 26 33 7 147 -9 163
-23 16 -14 -105 -159 -155 -186 -43 -22 -86 -18 -113 12 -14 15 -25 31 -25 36
0 16 -52 4 -64 -14 -26 -41 78 -96 157 -84 77 13 171 82 247 184 l25 32 76
-24 c42 -13 112 -32 155 -42 44 -10 80 -19 82 -20 2 -1 -6 -20 -17 -43 -26
-49 -26 -61 -3 -61 33 0 65 25 76 59 11 33 14 35 94 52 45 10 109 31 141 46
l58 28 -18 -35 c-25 -45 -24 -81 1 -113 40 -50 135 -45 258 13 l62 29 6 -25
c8 -32 41 -54 79 -54 35 0 106 31 152 66 l32 24 3 -37 c3 -36 5 -38 41 -41 28
-2 59 6 113 32 l74 35 0 -24 c0 -30 25 -55 54 -55 28 0 118 30 174 59 22 11
43 21 46 21 3 0 -2 -16 -10 -35 -18 -44 -18 -45 4 -45 10 0 67 41 127 91 112
92 220 169 237 169 13 0 2 -32 -44 -123 -65 -130 -44 -158 83 -110 l82 32 19
-24 c36 -46 133 -43 246 10 l52 24 0 -29 c0 -23 5 -31 26 -36 47 -12 196 30
273 76 48 30 33 34 -30 9 -63 -25 -146 -49 -173 -49 -43 0 18 107 97 170 27
22 54 40 58 40 14 0 10 -23 -7 -48 -9 -13 -13 -29 -10 -37 16 -44 95 20 117
95 11 35 10 43 -4 57 -21 21 -46 11 -127 -52 -32 -25 -61 -45 -64 -45 -4 0 5
22 19 50 14 27 25 52 25 55 0 3 -13 5 -29 5 -39 0 -73 -42 -122 -148 -37 -80
-40 -84 -95 -108 -31 -13 -75 -27 -99 -30 -44 -7 -90 9 -80 27 4 5 52 32 107
60 121 61 148 85 148 133 0 71 -75 84 -179 31 -63 -31 -158 -134 -167 -179 -6
-35 -7 -36 -101 -73 -24 -9 -13 31 37 136 51 110 53 132 10 146 -22 7 -65 -18
-210 -119 -38 -27 -72 -47 -75 -44 -8 8 33 113 109 275 79 169 218 522 210
534 -7 12 -34 10 -61 -3z m-1247 -704 c5 -19 0 -32 -19 -52 -32 -33 -135 -97
-143 -89 -9 9 40 90 80 131 40 43 73 47 82 10z m1590 0 c5 -19 0 -32 -19 -52
-32 -33 -135 -97 -143 -89 -9 9 40 90 80 131 40 43 73 47 82 10z"/>
</g>
</svg>
